<mxfile host="app.diagrams.net" modified="2023-04-25T15:58:45.317Z" agent="Mozilla/5.0 (Windows NT 10.0; Win64; x64) AppleWebKit/537.36 (KHTML, like Gecko) Chrome/112.0.0.0 Safari/537.36 Edg/112.0.1722.58" etag="Phc4_K54dI7m1IknFt-N" version="21.2.1" type="github">
  <diagram name="Page-1" id="WcUPZxskKVuSX5GP9IsT">
    <mxGraphModel dx="1235" dy="646" grid="1" gridSize="10" guides="1" tooltips="1" connect="1" arrows="1" fold="1" page="1" pageScale="1" pageWidth="827" pageHeight="1169" math="0" shadow="0">
      <root>
        <mxCell id="0" />
        <mxCell id="1" parent="0" />
        <mxCell id="l8RqUAS7_ePLlZICfafC-19" style="edgeStyle=orthogonalEdgeStyle;rounded=0;orthogonalLoop=1;jettySize=auto;html=1;exitX=1;exitY=0.5;exitDx=0;exitDy=0;entryX=0;entryY=0.5;entryDx=0;entryDy=0;" edge="1" parent="1" source="l8RqUAS7_ePLlZICfafC-2" target="l8RqUAS7_ePLlZICfafC-12">
          <mxGeometry relative="1" as="geometry" />
        </mxCell>
        <mxCell id="l8RqUAS7_ePLlZICfafC-68" style="edgeStyle=orthogonalEdgeStyle;rounded=0;orthogonalLoop=1;jettySize=auto;html=1;exitX=0.5;exitY=1;exitDx=0;exitDy=0;entryX=0.5;entryY=0;entryDx=0;entryDy=0;" edge="1" parent="1" source="l8RqUAS7_ePLlZICfafC-2" target="l8RqUAS7_ePLlZICfafC-16">
          <mxGeometry relative="1" as="geometry" />
        </mxCell>
        <mxCell id="l8RqUAS7_ePLlZICfafC-2" value="用户进入管理模块" style="rounded=1;whiteSpace=wrap;html=1;fontSize=12;glass=0;strokeWidth=1;shadow=0;" vertex="1" parent="1">
          <mxGeometry x="330" y="120" width="120" height="40" as="geometry" />
        </mxCell>
        <mxCell id="l8RqUAS7_ePLlZICfafC-12" value="新增" style="rounded=1;whiteSpace=wrap;html=1;fontSize=12;glass=0;strokeWidth=1;shadow=0;" vertex="1" parent="1">
          <mxGeometry x="540" y="120" width="120" height="40" as="geometry" />
        </mxCell>
        <mxCell id="l8RqUAS7_ePLlZICfafC-62" value="" style="edgeStyle=orthogonalEdgeStyle;rounded=0;orthogonalLoop=1;jettySize=auto;html=1;entryX=0.5;entryY=0;entryDx=0;entryDy=0;exitX=0.5;exitY=1;exitDx=0;exitDy=0;" edge="1" parent="1" source="l8RqUAS7_ePLlZICfafC-14" target="l8RqUAS7_ePLlZICfafC-70">
          <mxGeometry relative="1" as="geometry" />
        </mxCell>
        <mxCell id="l8RqUAS7_ePLlZICfafC-14" value="删除" style="rounded=1;whiteSpace=wrap;html=1;fontSize=12;glass=0;strokeWidth=1;shadow=0;" vertex="1" parent="1">
          <mxGeometry x="540" y="330" width="120" height="40" as="geometry" />
        </mxCell>
        <mxCell id="l8RqUAS7_ePLlZICfafC-15" value="修改" style="rounded=1;whiteSpace=wrap;html=1;fontSize=12;glass=0;strokeWidth=1;shadow=0;" vertex="1" parent="1">
          <mxGeometry x="540" y="210" width="120" height="40" as="geometry" />
        </mxCell>
        <mxCell id="l8RqUAS7_ePLlZICfafC-26" style="edgeStyle=orthogonalEdgeStyle;rounded=0;orthogonalLoop=1;jettySize=auto;html=1;exitX=0.5;exitY=1;exitDx=0;exitDy=0;" edge="1" parent="1" source="l8RqUAS7_ePLlZICfafC-16" target="l8RqUAS7_ePLlZICfafC-25">
          <mxGeometry relative="1" as="geometry">
            <mxPoint x="384" y="232" as="sourcePoint" />
          </mxGeometry>
        </mxCell>
        <mxCell id="l8RqUAS7_ePLlZICfafC-69" style="edgeStyle=orthogonalEdgeStyle;rounded=0;orthogonalLoop=1;jettySize=auto;html=1;exitX=0;exitY=0.5;exitDx=0;exitDy=0;entryX=0;entryY=0.5;entryDx=0;entryDy=0;" edge="1" parent="1" source="l8RqUAS7_ePLlZICfafC-16" target="l8RqUAS7_ePLlZICfafC-17">
          <mxGeometry relative="1" as="geometry" />
        </mxCell>
        <mxCell id="l8RqUAS7_ePLlZICfafC-16" value="查询" style="rounded=1;whiteSpace=wrap;html=1;fontSize=12;glass=0;strokeWidth=1;shadow=0;" vertex="1" parent="1">
          <mxGeometry x="330" y="190" width="120" height="40" as="geometry" />
        </mxCell>
        <mxCell id="l8RqUAS7_ePLlZICfafC-17" value="高级查询" style="whiteSpace=wrap;html=1;align=center;verticalAlign=middle;treeFolding=1;treeMoving=1;newEdgeStyle={&quot;edgeStyle&quot;:&quot;elbowEdgeStyle&quot;,&quot;startArrow&quot;:&quot;none&quot;,&quot;endArrow&quot;:&quot;none&quot;};" vertex="1" parent="1">
          <mxGeometry x="310" y="380" width="100" height="60" as="geometry" />
        </mxCell>
        <mxCell id="l8RqUAS7_ePLlZICfafC-21" value="" style="strokeWidth=2;html=1;shape=mxgraph.flowchart.annotation_2;align=left;labelPosition=right;pointerEvents=1;" vertex="1" parent="1">
          <mxGeometry x="450" y="230" width="90" height="120" as="geometry" />
        </mxCell>
        <mxCell id="l8RqUAS7_ePLlZICfafC-25" value="选择条目" style="rounded=1;whiteSpace=wrap;html=1;fontSize=12;glass=0;strokeWidth=1;shadow=0;" vertex="1" parent="1">
          <mxGeometry x="330" y="270" width="120" height="40" as="geometry" />
        </mxCell>
        <mxCell id="l8RqUAS7_ePLlZICfafC-27" value="" style="strokeWidth=2;html=1;shape=mxgraph.flowchart.annotation_2;align=left;labelPosition=right;pointerEvents=1;rotation=-180;" vertex="1" parent="1">
          <mxGeometry x="660" y="140" width="50" height="90" as="geometry" />
        </mxCell>
        <mxCell id="l8RqUAS7_ePLlZICfafC-47" value="" style="edgeStyle=orthogonalEdgeStyle;rounded=0;orthogonalLoop=1;jettySize=auto;html=1;" edge="1" parent="1" source="l8RqUAS7_ePLlZICfafC-28" target="l8RqUAS7_ePLlZICfafC-46">
          <mxGeometry relative="1" as="geometry" />
        </mxCell>
        <mxCell id="l8RqUAS7_ePLlZICfafC-28" value="修改接口接受请求" style="rounded=1;whiteSpace=wrap;html=1;fontSize=12;glass=0;strokeWidth=1;shadow=0;" vertex="1" parent="1">
          <mxGeometry x="710" y="165" width="120" height="40" as="geometry" />
        </mxCell>
        <mxCell id="l8RqUAS7_ePLlZICfafC-29" value="是否有ID" style="rhombus;whiteSpace=wrap;html=1;shadow=0;fontFamily=Helvetica;fontSize=12;align=center;strokeWidth=1;spacing=6;spacingTop=-4;movable=1;resizable=1;rotatable=1;deletable=1;editable=1;locked=0;connectable=1;" vertex="1" parent="1">
          <mxGeometry x="860" y="240" width="100" height="80" as="geometry" />
        </mxCell>
        <mxCell id="l8RqUAS7_ePLlZICfafC-31" value="Yes" style="edgeStyle=orthogonalEdgeStyle;rounded=0;html=1;jettySize=auto;orthogonalLoop=1;fontSize=11;endArrow=block;endFill=0;endSize=8;strokeWidth=1;shadow=0;labelBackgroundColor=none;exitX=0.5;exitY=1;exitDx=0;exitDy=0;entryX=0.5;entryY=0;entryDx=0;entryDy=0;" edge="1" parent="1" source="l8RqUAS7_ePLlZICfafC-29" target="l8RqUAS7_ePLlZICfafC-32">
          <mxGeometry y="10" relative="1" as="geometry">
            <mxPoint as="offset" />
            <mxPoint x="280" y="530" as="sourcePoint" />
            <mxPoint x="330" y="530" as="targetPoint" />
          </mxGeometry>
        </mxCell>
        <mxCell id="l8RqUAS7_ePLlZICfafC-38" value="" style="edgeStyle=orthogonalEdgeStyle;rounded=0;orthogonalLoop=1;jettySize=auto;html=1;shadow=0;" edge="1" parent="1" source="l8RqUAS7_ePLlZICfafC-32" target="l8RqUAS7_ePLlZICfafC-36">
          <mxGeometry relative="1" as="geometry" />
        </mxCell>
        <mxCell id="l8RqUAS7_ePLlZICfafC-32" value="更新记录" style="rounded=1;whiteSpace=wrap;html=1;fontSize=12;glass=0;strokeWidth=1;shadow=0;" vertex="1" parent="1">
          <mxGeometry x="850" y="360" width="120" height="40" as="geometry" />
        </mxCell>
        <mxCell id="l8RqUAS7_ePLlZICfafC-37" value="" style="edgeStyle=orthogonalEdgeStyle;rounded=0;orthogonalLoop=1;jettySize=auto;html=1;shadow=0;" edge="1" parent="1" source="l8RqUAS7_ePLlZICfafC-33" target="l8RqUAS7_ePLlZICfafC-36">
          <mxGeometry relative="1" as="geometry" />
        </mxCell>
        <mxCell id="l8RqUAS7_ePLlZICfafC-33" value="新增记录" style="rounded=1;whiteSpace=wrap;html=1;fontSize=12;glass=0;strokeWidth=1;shadow=0;" vertex="1" parent="1">
          <mxGeometry x="1010" y="260" width="120" height="40" as="geometry" />
        </mxCell>
        <mxCell id="l8RqUAS7_ePLlZICfafC-35" value="No" style="rounded=0;html=1;jettySize=auto;orthogonalLoop=1;fontSize=11;endArrow=block;endFill=0;endSize=8;strokeWidth=1;shadow=0;labelBackgroundColor=none;edgeStyle=orthogonalEdgeStyle;exitX=1;exitY=0.5;exitDx=0;exitDy=0;entryX=0;entryY=0.5;entryDx=0;entryDy=0;" edge="1" parent="1" source="l8RqUAS7_ePLlZICfafC-29" target="l8RqUAS7_ePLlZICfafC-33">
          <mxGeometry x="0.3333" y="20" relative="1" as="geometry">
            <mxPoint as="offset" />
            <mxPoint x="230" y="570" as="sourcePoint" />
            <mxPoint x="230" y="630" as="targetPoint" />
          </mxGeometry>
        </mxCell>
        <mxCell id="l8RqUAS7_ePLlZICfafC-36" value="返回成功数据" style="rounded=1;whiteSpace=wrap;html=1;fontSize=12;glass=0;strokeWidth=1;shadow=0;" vertex="1" parent="1">
          <mxGeometry x="1010" y="450" width="120" height="40" as="geometry" />
        </mxCell>
        <mxCell id="l8RqUAS7_ePLlZICfafC-46" value="是否出现异常" style="rhombus;whiteSpace=wrap;html=1;shadow=0;fontFamily=Helvetica;fontSize=12;align=center;strokeWidth=1;spacing=6;spacingTop=-4;movable=1;resizable=1;rotatable=1;deletable=1;editable=1;locked=0;connectable=1;" vertex="1" parent="1">
          <mxGeometry x="720" y="240" width="100" height="80" as="geometry" />
        </mxCell>
        <mxCell id="l8RqUAS7_ePLlZICfafC-48" value="No" style="rounded=0;html=1;jettySize=auto;orthogonalLoop=1;fontSize=11;endArrow=block;endFill=0;endSize=8;strokeWidth=1;shadow=0;labelBackgroundColor=none;edgeStyle=orthogonalEdgeStyle;exitX=1;exitY=0.5;exitDx=0;exitDy=0;entryX=0;entryY=0.5;entryDx=0;entryDy=0;" edge="1" parent="1" source="l8RqUAS7_ePLlZICfafC-46" target="l8RqUAS7_ePLlZICfafC-29">
          <mxGeometry x="0.3333" y="20" relative="1" as="geometry">
            <mxPoint as="offset" />
            <mxPoint x="830" y="390" as="sourcePoint" />
            <mxPoint x="880" y="390" as="targetPoint" />
          </mxGeometry>
        </mxCell>
        <mxCell id="l8RqUAS7_ePLlZICfafC-49" value="全局捕获异常&lt;br&gt;返回错误信息" style="rounded=1;whiteSpace=wrap;html=1;fontSize=12;glass=0;strokeWidth=1;shadow=0;" vertex="1" parent="1">
          <mxGeometry x="710" y="360" width="120" height="40" as="geometry" />
        </mxCell>
        <mxCell id="l8RqUAS7_ePLlZICfafC-50" value="" style="edgeStyle=orthogonalEdgeStyle;rounded=0;orthogonalLoop=1;jettySize=auto;html=1;entryX=0.5;entryY=1;entryDx=0;entryDy=0;" edge="1" parent="1" target="l8RqUAS7_ePLlZICfafC-46">
          <mxGeometry relative="1" as="geometry">
            <mxPoint x="770" y="320" as="sourcePoint" />
            <mxPoint x="140" y="530" as="targetPoint" />
          </mxGeometry>
        </mxCell>
        <mxCell id="l8RqUAS7_ePLlZICfafC-51" value="Yes" style="edgeStyle=orthogonalEdgeStyle;rounded=0;html=1;jettySize=auto;orthogonalLoop=1;fontSize=11;endArrow=block;endFill=0;endSize=8;strokeWidth=1;shadow=0;labelBackgroundColor=none;exitX=0.5;exitY=1;exitDx=0;exitDy=0;entryX=0.5;entryY=0;entryDx=0;entryDy=0;" edge="1" parent="1" source="l8RqUAS7_ePLlZICfafC-46" target="l8RqUAS7_ePLlZICfafC-49">
          <mxGeometry y="10" relative="1" as="geometry">
            <mxPoint as="offset" />
            <mxPoint x="140" y="530" as="sourcePoint" />
            <mxPoint x="210" y="470" as="targetPoint" />
          </mxGeometry>
        </mxCell>
        <mxCell id="l8RqUAS7_ePLlZICfafC-55" value="是否出现异常" style="rhombus;whiteSpace=wrap;html=1;shadow=0;fontFamily=Helvetica;fontSize=12;align=center;strokeWidth=1;spacing=6;spacingTop=-4;movable=1;resizable=1;rotatable=1;deletable=1;editable=1;locked=0;connectable=1;" vertex="1" parent="1">
          <mxGeometry x="590" y="440" width="100" height="80" as="geometry" />
        </mxCell>
        <mxCell id="l8RqUAS7_ePLlZICfafC-63" value="Yes" style="edgeStyle=orthogonalEdgeStyle;rounded=0;html=1;jettySize=auto;orthogonalLoop=1;fontSize=11;endArrow=block;endFill=0;endSize=8;strokeWidth=1;shadow=0;labelBackgroundColor=none;exitX=1;exitY=0.5;exitDx=0;exitDy=0;entryX=0.5;entryY=1;entryDx=0;entryDy=0;" edge="1" parent="1" source="l8RqUAS7_ePLlZICfafC-55" target="l8RqUAS7_ePLlZICfafC-49">
          <mxGeometry y="10" relative="1" as="geometry">
            <mxPoint as="offset" />
            <mxPoint x="780" y="330" as="sourcePoint" />
            <mxPoint x="780" y="370" as="targetPoint" />
          </mxGeometry>
        </mxCell>
        <mxCell id="l8RqUAS7_ePLlZICfafC-64" value="No" style="rounded=0;html=1;jettySize=auto;orthogonalLoop=1;fontSize=11;endArrow=block;endFill=0;endSize=8;strokeWidth=1;shadow=0;labelBackgroundColor=none;edgeStyle=orthogonalEdgeStyle;exitX=0.5;exitY=1;exitDx=0;exitDy=0;entryX=0.5;entryY=0;entryDx=0;entryDy=0;" edge="1" parent="1" source="l8RqUAS7_ePLlZICfafC-55" target="l8RqUAS7_ePLlZICfafC-65">
          <mxGeometry x="0.3333" y="20" relative="1" as="geometry">
            <mxPoint as="offset" />
            <mxPoint x="970" y="290" as="sourcePoint" />
            <mxPoint x="600" y="520" as="targetPoint" />
          </mxGeometry>
        </mxCell>
        <mxCell id="l8RqUAS7_ePLlZICfafC-66" style="edgeStyle=orthogonalEdgeStyle;rounded=0;orthogonalLoop=1;jettySize=auto;html=1;exitX=1;exitY=0.5;exitDx=0;exitDy=0;entryX=0.5;entryY=1;entryDx=0;entryDy=0;" edge="1" parent="1" source="l8RqUAS7_ePLlZICfafC-65" target="l8RqUAS7_ePLlZICfafC-36">
          <mxGeometry relative="1" as="geometry" />
        </mxCell>
        <mxCell id="l8RqUAS7_ePLlZICfafC-65" value="删除对应记录" style="rounded=1;whiteSpace=wrap;html=1;fontSize=12;glass=0;strokeWidth=1;shadow=0;" vertex="1" parent="1">
          <mxGeometry x="580" y="545" width="120" height="40" as="geometry" />
        </mxCell>
        <mxCell id="l8RqUAS7_ePLlZICfafC-71" style="edgeStyle=orthogonalEdgeStyle;rounded=0;orthogonalLoop=1;jettySize=auto;html=1;exitX=0.5;exitY=1;exitDx=0;exitDy=0;" edge="1" parent="1" source="l8RqUAS7_ePLlZICfafC-70" target="l8RqUAS7_ePLlZICfafC-55">
          <mxGeometry relative="1" as="geometry" />
        </mxCell>
        <mxCell id="l8RqUAS7_ePLlZICfafC-70" value="删除接口接受请求" style="rounded=1;whiteSpace=wrap;html=1;fontSize=12;glass=0;strokeWidth=1;shadow=0;" vertex="1" parent="1">
          <mxGeometry x="460" y="420" width="120" height="40" as="geometry" />
        </mxCell>
      </root>
    </mxGraphModel>
  </diagram>
</mxfile>
